PathFileType	4	(X/Y/Z)	c:/Users/goper/Files/vsCode/490R/osim_files/C15/C15_Slow_03.trc
DataRate	CameraRate	NumFrames	NumMarkers	Units                	OrigDataRate	OrigDataStartFrame	OrigNumFrames
250.00	250.00	9	36	mm	250.0	2491	3984
                Frame#	Time	LPSIS			LASIS			LTH1			LTH2			LTH3			LTH4			LLFE			LMFE			LSH1			LSH2			LSH3			LSH4			LLMAL			LMMAL			LCAL			LMTP5			LTOE			LMTP1			RPSIS			RASIS			RTH1			RTH2			RTH3			RTH4			RLFE			RMFE			RSH1			RSH2			RSH3			RSH4			RLMAL			RMMAL			RCAL			RMTP1			RTOE			RMTP5		
		X1	Y1	Z1	X2	Y2	Z2	X3	Y3	Z3	X4	Y4	Z4	X5	Y5	Z5	X6	Y6	Z6	X7	Y7	Z7	X8	Y8	Z8	X9	Y9	Z9	X10	Y10	Z10	X11	Y11	Z11	X12	Y12	Z12	X13	Y13	Z13	X14	Y14	Z14	X15	Y15	Z15	X16	Y16	Z16	X17	Y17	Z17	X18	Y18	Z18	X19	Y19	Z19	X20	Y20	Z20	X21	Y21	Z21	X22	Y22	Z22	X23	Y23	Z23	X24	Y24	Z24	X25	Y25	Z25	X26	Y26	Z26	X27	Y27	Z27	X28	Y28	Z28	X29	Y29	Z29	X30	Y30	Z30	X31	Y31	Z31	X32	Y32	Z32	X33	Y33	Z33	X34	Y34	Z34	X35	Y35	Z35	X36	Y36	Z36

2491	9.96000	48.46379	1016.00043	243.13693	-110.83337	997.54895	319.02469	-113.65565	610.69397	402.50995	-126.45726	564.43481	389.90213	-161.70946	629.49585	403.31485	-172.44756	584.62518	399.18512	-154.83667	500.49811	377.51102	-180.12131	476.44629	259.64551	-56.02950	459.78387	376.41238	-25.37713	427.87442	380.61829	-97.32829	414.31073	389.22406	-60.75051	388.32294	392.26666	133.95653	218.13123	322.52249	84.74815	212.55597	242.37640	185.29298	236.18536	264.68982	87.13995	99.44197	360.56415	15.18467	80.49545	315.65863	54.44420	78.46476	250.99577	36.04715	1021.18787	122.60806	-125.22298	1000.13049	71.09843	-102.14694	626.22772	26.13150	-107.87530	581.20721	38.12904	-160.93295	631.93463	42.58778	-159.16727	584.61682	48.80448	-120.13578	489.98764	69.88766	-94.63637	475.94217	184.80052	-37.40949	383.32980	47.54808	-36.13666	339.74796	46.47887	-100.04424	374.14819	54.81763	-88.25975	333.20151	50.54367	-37.99575	80.12821	120.74907	-64.68763	105.02579	209.09427	23.60314	57.30225	165.84706	-178.60809	35.56528	217.49899	-213.58121	59.81754	164.46251	-156.87546	31.64251	96.02312
2492	9.96400	45.21492	1016.39697	243.09731	-114.23624	998.01160	318.69635	-118.82861	611.71771	402.61374	-131.75258	565.42810	389.93484	-166.77885	630.66736	403.22052	-177.46228	585.83624	399.17209	-159.60211	502.35165	377.23996	-185.16489	477.65332	259.30344	-60.55909	460.29813	375.54886	-31.37921	427.31131	380.32849	-103.64550	414.74554	388.95239	-67.41588	388.20728	392.06296	124.56721	214.55777	323.00943	75.37587	209.75775	242.57068	176.58195	231.33588	265.18048	75.04854	97.00741	361.15234	2.93882	79.55179	315.95709	42.45601	76.58678	251.40015	33.12381	1021.49036	122.53659	-128.02628	1000.23132	70.63337	-103.59228	626.22375	25.96291	-109.00254	581.19489	37.94203	-162.27626	631.68402	42.39960	-160.22729	584.37115	48.55501	-121.35529	489.46848	69.95527	-95.36813	475.92310	184.58408	-37.89066	383.42258	47.28783	-36.65919	339.78223	46.20890	-100.57589	374.03601	54.63319	-88.71005	333.15878	50.35890	-38.14099	80.15384	120.78237	-64.77939	105.02706	209.09499	23.58959	57.31299	165.84142	-178.60109	35.55653	217.54245	-213.58029	59.65181	164.51875	-156.78481	31.74414	96.01730
2493	9.96800	42.00897	1016.80957	243.09880	-117.77052	998.54419	318.31897	-123.95483	612.56415	402.68408	-137.12358	566.38159	389.89255	-171.84586	631.79376	403.07465	-182.55783	587.01428	399.13678	-164.91696	503.34360	376.82086	-190.40118	478.94882	258.96182	-66.75280	459.60150	375.27478	-37.40694	426.71225	380.06964	-109.75190	415.20728	388.63010	-74.06931	388.14001	391.93042	114.85532	210.76825	323.87308	66.27263	206.91827	242.81325	167.73338	226.46272	265.94742	62.92283	94.59827	361.72269	-9.40091	78.60771	316.34940	29.56863	74.01592	252.16765	30.07741	1021.73279	122.50133	-130.79742	1000.25146	70.28316	-104.78458	626.30450	25.76853	-110.12965	581.29163	37.70850	-163.67719	631.42712	42.15977	-161.38562	584.14771	48.33794	-122.20087	489.27130	69.88070	-96.21477	475.88455	184.35612	-38.45839	383.47760	47.07710	-37.13868	339.79663	46.00754	-101.15823	373.98346	54.45736	-89.27296	333.11740	50.18080	-38.38088	79.98335	121.02997	-64.78090	105.01826	209.08145	23.57130	57.33820	165.84378	-178.43655	35.75136	217.68208	-213.58014	59.55889	164.51154	-156.76973	31.70176	95.98505
2494	9.97200	38.72950	1017.19635	243.05103	-121.23740	998.97296	317.90311	-129.10291	613.43079	402.64029	-142.30115	567.42328	389.94016	-176.82730	632.91425	402.92300	-187.51460	588.17566	399.09323	-170.24611	504.37787	376.38330	-195.37201	480.02890	258.57336	-72.23183	459.32040	374.77396	-43.41198	425.95587	379.68152	-115.89208	415.68799	388.21426	-80.60088	388.05817	391.76230	105.44854	207.00945	324.42795	56.69880	204.04091	243.20975	158.62943	221.23360	266.52097	50.53415	92.07288	362.31650	-22.09310	77.68179	316.72867	18.21775	72.78709	251.62288	27.05534	1021.96875	122.46426	-133.67633	1000.30414	69.84184	-106.13435	626.28534	25.62799	-111.20265	581.21179	37.48250	-164.94963	631.21362	41.93224	-162.55783	583.93329	48.10452	-122.26882	489.74734	68.89648	-97.08452	475.85400	184.15567	-38.94599	383.49600	46.81099	-37.66791	339.85464	45.84534	-101.81377	373.92639	54.31102	-89.81697	333.06982	50.06451	-38.42411	79.99624	121.03251	-64.91053	105.13000	209.11681	23.55436	57.37315	165.85341	-178.47794	35.75600	217.70233	-213.61900	59.48636	164.50661	-156.77899	31.66940	95.94863
2495	9.97600	35.43357	1017.58490	243.05919	-124.73502	999.38696	317.53271	-133.97505	614.52777	402.77481	-147.31555	568.44489	389.96680	-181.81422	633.98102	402.72824	-192.57747	589.29688	398.94186	-175.52263	505.37897	375.86130	-200.59151	480.99887	258.14178	-77.52788	458.99524	374.13788	-49.34608	425.19614	379.28046	-121.94842	416.05972	387.83835	-87.11402	387.98535	391.56955	95.56124	203.00583	324.79224	47.40692	201.28416	243.38638	149.45956	215.97752	267.14761	38.06921	89.55743	362.88437	-34.67741	76.87694	317.17966	6.66042	71.80498	251.43108	24.13634	1022.27118	122.41493	-136.40912	1000.34637	69.40525	-107.42548	626.29370	25.42288	-112.38986	581.20264	37.30478	-166.39926	630.96094	41.74282	-163.65309	583.72748	47.82215	-123.03348	489.60919	68.72170	-97.89250	475.81259	183.92549	-39.45002	383.61646	46.74115	-38.14245	339.93002	45.66766	-102.34658	373.83600	54.19435	-90.23314	333.00674	49.94363	-38.47191	80.01398	121.05238	-65.00727	105.18754	209.09633	22.63833	56.52647	166.61325	-178.48392	35.74862	217.69255	-213.65585	59.41264	164.48836	-156.89478	31.50921	95.94225
2496	9.98000	32.26274	1017.93378	243.03841	-128.03421	999.80164	317.11710	-138.88852	615.48932	402.70911	-155.48921	567.97418	388.99020	-186.65227	635.10059	402.53488	-197.48358	590.32660	398.79956	-180.69777	506.31796	375.38614	-205.41473	482.43942	257.30850	-83.37488	458.32742	373.77090	-55.13419	424.36853	378.80872	-127.86983	416.39966	387.46942	-93.53188	387.78802	391.31900	85.71936	198.96793	325.26059	37.60023	198.18332	243.79886	140.09329	210.51993	267.74481	25.54743	87.03490	363.55624	-47.40385	75.96577	317.57425	-7.38258	69.27322	253.14003	21.18815	1022.50586	122.40270	-139.21066	1000.31567	68.96268	-108.76030	626.25879	25.28457	-113.41803	581.23444	37.08608	-167.61766	630.73511	41.52858	-164.85562	583.48334	47.68327	-123.75141	489.53363	68.45220	-98.73927	475.75076	183.78322	-39.95158	383.68573	46.65609	-38.62742	339.98648	45.56539	-102.82912	373.77365	54.03872	-90.61721	332.96313	49.78364	-38.50826	80.01422	121.07443	-65.17567	105.30763	209.06320	22.35756	56.67006	166.72224	-178.72078	35.55894	217.55379	-213.67113	59.36998	164.46793	-156.80261	31.63352	95.92602
2497	9.98400	29.01570	1018.31152	243.06477	-131.41472	1000.12988	316.78592	-143.94801	616.25012	402.64252	-157.42023	570.29523	389.86035	-191.53035	636.12683	402.30789	-202.39728	591.45239	398.61365	-185.85057	507.27905	374.81488	-210.39369	483.37219	256.93396	-87.71768	458.37073	372.56528	-60.78326	423.41666	378.33505	-133.87044	416.70432	387.11694	-99.92495	387.54221	391.07559	75.77749	194.90366	325.67758	27.69455	194.97403	244.20351	130.53638	204.99554	268.31750	12.88541	84.41913	364.18604	-60.35276	75.03753	318.01828	-20.29748	67.32702	253.78333	18.21654	1022.73828	122.40189	-141.91454	1000.45526	68.66143	-110.03195	626.28040	25.07946	-114.46508	581.36572	36.92439	-168.98473	630.54474	41.27930	-165.91087	583.26880	47.47666	-124.44418	489.48572	68.14951	-99.52681	475.72629	183.66161	-40.43328	383.75562	46.60657	-38.97475	340.06223	45.52739	-103.28276	373.75620	53.88134	-90.96114	332.92883	49.60192	-38.52320	80.04549	121.08978	-65.32839	105.44258	209.08122	22.35044	56.70147	166.75652	-179.33459	35.92463	218.17499	-213.76089	59.26564	164.38603	-156.93445	31.45951	95.91135
2498	9.98800	25.74293	1018.66656	243.09027	-134.83127	1000.46503	316.34116	-148.71196	617.21375	402.68253	-162.41150	571.13721	389.77191	-196.42203	637.12744	402.01126	-207.34174	592.47723	398.38602	-190.87505	508.18542	374.31818	-215.70116	484.26306	256.40985	-93.27696	457.39798	372.28314	-66.67029	422.30054	377.79471	-139.70595	416.82669	386.72675	-106.25475	387.20703	390.77728	65.60907	190.71487	326.14386	17.66144	191.72238	244.63348	120.81287	199.41521	268.83221	0.24383	81.88940	364.86874	-72.96011	74.20440	318.75488	-33.33223	65.35046	254.44470	15.24591	1022.92249	122.42041	-144.13799	1000.18530	68.12794	-111.46280	626.01617	24.60414	-113.37989	581.50177	34.95528	-170.29327	630.30957	41.10546	-166.61159	582.78845	47.58574	-125.06344	489.40762	67.87400	-100.27800	475.69507	183.48233	-40.86115	383.84732	46.56978	-39.26450	340.15305	45.50611	-103.77941	373.71109	53.73085	-91.29278	332.92270	49.46099	-38.59179	80.06084	121.12819	-65.41818	105.51396	209.07816	22.34637	56.76030	166.77608	-178.83316	35.54882	217.68069	-213.73685	59.25729	164.40858	-156.94067	31.42026	95.90469
2499	9.99200	22.59694	1019.02039	243.08549	-138.25360	1000.74091	315.92380	-153.44333	617.96973	402.49051	-167.67976	571.93945	389.41422	-201.11975	638.00775	401.72925	-212.01465	593.42126	398.11713	-195.71257	509.06668	373.77316	-219.40137	484.41217	256.56378	-98.42680	456.60468	371.72455	-72.37832	421.06604	377.32208	-145.55795	416.82874	386.33276	-112.37065	386.83020	390.43460	55.64331	186.69554	326.66074	7.06146	188.08817	245.30725	110.89857	193.79405	269.29944	-12.45384	79.37410	365.56332	-85.85539	73.34724	319.45218	-46.47960	63.44362	255.30171	12.27170	1023.12067	122.47909	-147.29439	1000.21631	67.71238	-112.84667	625.96722	24.47042	-115.27634	581.42804	34.89595	-171.71666	630.02509	40.88020	-167.72226	582.56445	47.41365	-125.86613	489.21432	67.71365	-101.18352	475.67752	183.30249	-41.23431	383.91296	46.61502	-39.53791	340.22891	45.51627	-104.15263	373.65967	53.59634	-91.60233	332.90408	49.35352	-38.60479	80.08041	121.16648	-65.72842	105.67058	209.09515	22.31998	56.77975	166.81099	-178.73653	35.87228	217.76108	-213.85046	59.18058	164.31528	-156.95377	31.38974	95.87941
